<?xml version="1.0" encoding="UTF-8" standalone="no"?>
<!-- Generator: Adobe Illustrator 23.0.3, SVG Export Plug-In . SVG Version: 6.00 Build 0)  -->

<svg
   xmlns:dc="http://purl.org/dc/elements/1.1/"
   xmlns:cc="http://creativecommons.org/ns#"
   xmlns:rdf="http://www.w3.org/1999/02/22-rdf-syntax-ns#"
   xmlns:svg="http://www.w3.org/2000/svg"
   xmlns="http://www.w3.org/2000/svg"
   xmlns:sodipodi="http://sodipodi.sourceforge.net/DTD/sodipodi-0.dtd"
   xmlns:inkscape="http://www.inkscape.org/namespaces/inkscape"
   version="1.1"
   id="Capa_1"
   x="0px"
   y="0px"
   viewBox="0 0 841.9 1002.6"
   style="enable-background:new 0 0 841.9 1002.6;"
   xml:space="preserve"
   sodipodi:docname="36 Food and drink flat icons.svg"
   inkscape:version="0.92.4 (5da689c313, 2019-01-14)"><metadata
   id="metadata4703"><rdf:RDF><cc:Work
       rdf:about=""><dc:format>image/svg+xml</dc:format><dc:type
         rdf:resource="http://purl.org/dc/dcmitype/StillImage" /></cc:Work></rdf:RDF></metadata><defs
   id="defs4701" /><sodipodi:namedview
   pagecolor="#ffffff"
   bordercolor="#666666"
   borderopacity="1"
   objecttolerance="10"
   gridtolerance="10"
   guidetolerance="10"
   inkscape:pageopacity="0"
   inkscape:pageshadow="2"
   inkscape:window-width="1280"
   inkscape:window-height="961"
   id="namedview4699"
   showgrid="false"
   inkscape:zoom="0.76002396"
   inkscape:cx="420.95001"
   inkscape:cy="501.29999"
   inkscape:window-x="-8"
   inkscape:window-y="-8"
   inkscape:window-maximized="1"
   inkscape:current-layer="Capa_1"
   inkscape:snap-text-baseline="true" />
<style
   type="text/css"
   id="style4209">
	.st0{fill:url(#SVGID_1_);}
	.st1{fill:#282829;}
</style>

<g
   id="g4316">
	<path
   class="st1"
   d="M108.1,266c0.6-3.1,1.4-6.2,3.3-8.2c3-3.2,7.4-5.3,10.8-8.1c2.4-2-1-5.4-3.5-3.5c-3.6,2.9-8.4,5.2-11.4,8.8   c-2.5,2.9-3.4,7-4.1,10.9c-17.4,0.1-27,1.6-27,19.8c0,19.1,10.8,35.1,29.9,35.1c19.1,0,28.1-16,28.1-35.1   C134.1,267.4,125.7,266.1,108.1,266z"
   id="path4312" />
	<path
   class="st1"
   d="M104.3,256.5c0,0-4-9.4-8.5-10c0,0,8.7,0,11.5,6.4c0,0,10.4-13-25.3-16.4C82,236.5,92,276.7,104.3,256.5z"
   id="path4314" />
</g>
<g
   id="g4328">
	<path
   class="st1"
   d="M191.8,431.3c0,0.3,0.1,0.6,0.2,1l1.5,14.6c55.5,19.1,92.1,0,92.1,0v-20.6c-0.1,0.1-0.1,0.2-0.2,0.3   c0.2-2.2-0.1-4.5-1.3-7c-3.5-7-11.1-10.9-21.4-10.9c-7.1,0-14.8,2-19.3,4.9c-6.7,4.3-16.8,10.9-28.9,10.9c-1.5,0-3.1-0.1-4.6-0.3   c-1.8-0.2-3.4-0.4-5-0.4c-11.6,0-13,6.9-13.1,7.2l0,0.2L191.8,431.3z M258.4,412.6c0.8,2,1.6,3.9,2.5,5.8c-2.3,0.8-3.7,2.3-3.7,4   c0,2.5,3,4.4,7.2,4.7c0.1,0.2,0.1,0.4,0.2,0.6c1.7,3,2.9,6.1,4.1,9.3c-2.3,0.8-4.7,1.5-7,1.9c0-0.1,0-0.2,0-0.3   c-2.5-8.5-6-16.7-9.1-25C254.4,413.2,256.3,412.8,258.4,412.6z M265.5,421c3.1,0,4.9,1.1,5,1.5c-0.2,0.3-1.9,1.4-5,1.4   c-3.1,0-4.9-1.1-5-1.5C260.7,422,262.4,421,265.5,421z M263.2,412.3c1.4,0,3,0.1,4.8,0.4c0.1,0.2,0.1,0.4,0.2,0.7   c1,1.7,2,3.5,2.9,5.3c-1.5-0.7-3.3-1.1-5.5-1.1c-0.1,0-0.1,0-0.2,0c0-0.3-0.1-0.6-0.2-0.9C264.5,415.3,263.8,413.8,263.2,412.3z    M277.5,432.6c-1.3,1-2.9,1.9-4.6,2.7c-1.2-2.9-2.3-5.8-3.7-8.6c2.1-0.5,3.6-1.6,4.3-2.9C274.9,426.8,276.2,429.7,277.5,432.6z    M239.8,420.1c2.2,6.8,4.9,13.5,7.3,20.3c-1.6,0.1-3.3,0.1-5.1,0.2c-2.1-6.1-4-12.3-6-18.4C237.4,421.5,238.6,420.8,239.8,420.1z    M231.8,424.2c1.8,5.5,3.5,11,5.4,16.5c-1.2,0-2.3,0-3.5,0h0c-0.8,0-1.5,0-2.3,0c-1.4-4.9-3-9.8-4.6-14.7   C228.5,425.5,230.2,424.9,231.8,424.2z M222.3,427.2c1.5,4.5,2.9,8.9,4.2,13.4c-2.3-0.1-4.4-0.2-6.5-0.3c-1.1-4.1-2.5-8.2-3.3-12.4   C218.7,427.8,220.5,427.6,222.3,427.2z M201.4,427.7c0.6,3.3,1.2,6.6,1.9,9.8c-4.8-1.5-7.4-3.6-7.8-6.1   C195.8,430.8,197,428.5,201.4,427.7z M212.1,427.9c0,0,0,0.1,0,0.1c0.7,4.1,2,7.9,3.1,11.8c-2.5-0.3-4.8-0.6-6.9-1.1   c-0.8-3.8-1.5-7.6-2.2-11.4c1.1,0,2.2,0.1,3.3,0.3C210.3,427.9,211.2,427.9,212.1,427.9z M245.4,416.6c0.8-0.5,1.8-1,2.9-1.5   c3,8.2,6.4,16.3,8.9,24.7c-0.1,0-0.2,0-0.3,0c0,0-2,0.2-5.1,0.4c-2.6-7.5-5.6-15-8-22.6C244.4,417.3,244.9,416.9,245.4,416.6z    M281.1,428.7c0,0.1-0.1,0.2-0.2,0.2c-2.2-4.8-4.3-9.6-6.8-14.3c2.7,1.3,5.1,3.3,6.7,6.5C282.2,424,282.3,426.4,281.1,428.7z"
   id="path4318" />
	<g
   id="g4326">
		<path
   class="st1"
   d="M220.4,370.4c-3.8,4.2-1.9,9.5,0.4,14.1c1.4,2.8,3.5,5.7,3.8,9.3c0.4,5.1-5.5,7.6-8.1,8.7    c-1.2,0.5,0.9,4.3,1.9,3.9c5.3-2.3,10.5-5.9,8.1-14.1c-1.7-5.7-10.8-15.4-5.7-21C221.7,370.3,221.3,369.5,220.4,370.4L220.4,370.4    z"
   id="path4320" />
		<path
   class="st1"
   d="M254.8,366.7c-3.8,4.2-1.9,9.5,0.4,14.1c1.4,2.8,3.5,5.7,3.8,9.3c0.4,5.1-5.5,7.6-8.1,8.7    c-1.2,0.5,0.9,4.3,1.9,3.9c5.3-2.3,10.5-5.9,8.1-14.1c-1.7-5.7-10.8-15.4-5.7-21C256.1,366.6,255.7,365.7,254.8,366.7L254.8,366.7    z"
   id="path4322" />
		<path
   class="st1"
   d="M238.7,361.3c-4.3,5.8-2.1,13.2,0.4,19.7c1.6,4,3.9,8,4.2,12.9c0.5,7.2-6.1,10.6-9,12.2c-1.4,0.8,1,6,2.1,5.4    c5.8-3.3,11.6-8.2,9-19.7c-1.8-7.9-12-21.5-6.3-29.3C240.1,361.2,239.7,359.9,238.7,361.3L238.7,361.3z"
   id="path4324" />
	</g>
</g>
<g
   id="g4340">
	<g
   id="g4332">
		<path
   class="st1"
   d="M760,777.9c23.1,3,13.9,20.8,0.1,30.7c-6.5,4.6-15.4,13.6-7,20.8l41.7,0.2c1.8-1,3.9-3.4,4.5-6.1    c2.1-9,0.6-20.2-5.7-29.7c-5.1-7.8-18.9-17.8-33.1-17.1C760.5,776.8,754.8,777.2,760,777.9z"
   id="path4330" />
	</g>
	<g
   id="g4338">
		<polygon
   class="st1"
   points="793.3,840.2 795.3,832 752.8,832 754.5,840.2   "
   id="polygon4334" />
		<path
   class="st1"
   d="M755.1,843.2l3.1,14.7c0.6,3.6,3.6,8,8,8H781c4.4,0,7-4.4,8-8l3.6-14.7H755.1z"
   id="path4336" />
	</g>
</g>
<g
   id="g4352">
	<g
   id="g4348">
		<path
   class="st1"
   d="M120.4,367.9c3.8,4.1,1.9,9.4-0.4,14c-1.4,2.8-3.5,5.7-3.8,9.2c-0.4,5.1,5.5,7.5,8.1,8.7    c1.2,0.5-0.9,4.3-1.9,3.8c-5.2-2.3-10.4-5.8-8-14c1.6-5.6,10.8-15.3,5.6-20.9C119.1,367.8,119.5,366.9,120.4,367.9L120.4,367.9z"
   id="path4342" />
		<path
   class="st1"
   d="M86.2,364.2c3.8,4.1,1.9,9.4-0.4,14c-1.4,2.8-3.5,5.7-3.8,9.2c-0.4,5.1,5.5,7.5,8.1,8.7    c1.2,0.5-0.9,4.3-1.9,3.8c-5.2-2.3-10.4-5.8-8-14c1.6-5.6,10.8-15.3,5.6-20.9C85,364.1,85.3,363.2,86.2,364.2L86.2,364.2z"
   id="path4344" />
		<path
   class="st1"
   d="M102.2,358.8c4.2,5.7,2.1,13.1-0.4,19.5c-1.6,3.9-3.9,8-4.2,12.8c-0.5,7.1,6,10.5,9,12.1c1.3,0.8-1,6-2.1,5.3    c-5.8-3.2-11.6-8.1-8.9-19.5c1.8-7.9,11.9-21.4,6.2-29.1C100.8,358.7,101.2,357.5,102.2,358.8L102.2,358.8z"
   id="path4346" />
	</g>
	<path
   class="st1"
   d="M132,433.7c0-10.5,8-19.4,18.9-22.2c-2.3-0.6-4.7-0.9-7.3-0.9c-9.1,0-17.1,4.1-21.8,10.4   c-7-4.8-17.9-7.9-30.1-7.9c-21.1,0-38.3,9.2-38.3,20.6c0,11.4,17.1,20.6,38.3,20.6c12.2,0,23.1-3.1,30.1-7.9   c4.7,6.3,12.7,10.4,21.8,10.4c2.5,0,5-0.3,7.3-0.9C140,453.1,132,444.2,132,433.7z M68.8,428.5c-1.5,0-2.7-1.2-2.7-2.7   c0-1.5,1.2-2.7,2.7-2.7c1.5,0,2.7,1.2,2.7,2.7C71.5,427.3,70.3,428.5,68.8,428.5z M75.5,449c13.1-29.4,1.8-30.7,0.2-30.7   C97.9,417.4,75.5,449,75.5,449z"
   id="path4350" />
</g>
<g
   id="g4364">
	<path
   class="st1"
   d="M484.9,398.4c5.3-2.4,10.6-5.9,8.2-14.2c-1.7-5.7-10.9-15.6-5.7-21.2c0.9-1,0.6-1.9-0.4-0.9   c-3.9,4.2-2,9.6,0.4,14.2c1.4,2.9,3.5,5.8,3.8,9.3c0.4,5.2-5.5,7.6-8.2,8.8C481.7,395.1,483.8,398.9,484.9,398.4z"
   id="path4354" />
	<path
   class="st1"
   d="M519.6,394.6c5.3-2.4,10.6-5.9,8.2-14.2c-1.7-5.7-10.9-15.6-5.7-21.2c0.9-1,0.6-1.9-0.4-0.9   c-3.9,4.2-2,9.6,0.4,14.2c1.4,2.9,3.5,5.8,3.8,9.3c0.4,5.2-5.5,7.6-8.2,8.8C516.4,391.3,518.5,395.1,519.6,394.6z"
   id="path4356" />
	<path
   class="st1"
   d="M503.1,403.5c5.9-3.3,11.7-8.3,9.1-19.8c-1.8-8-12.1-21.7-6.3-29.6c1-1.4,0.6-2.6-0.4-1.2   c-4.3,5.8-2.2,13.4,0.4,19.9c1.6,4,3.9,8.1,4.2,13c0.5,7.2-6.1,10.6-9.1,12.3C499.6,398.9,502,404.2,503.1,403.5z"
   id="path4358" />
	<path
   class="st1"
   d="M534.3,414.8c-1-0.4-2.1-0.7-3.1-0.8c-2.3-2.9-5.7-4.7-9.5-5.1c-2.6-0.2-5.1,0.6-7.2,2   c-1.3-0.3-2.7-0.4-4.2-0.3c-1.1,0.1-2.3,0.5-3.6,1.2c-3.4-3.4-8.1-5-14.3-3.6c-3.2,0.8-5.7,2.5-7.4,4.8c-3.3-1.9-7.1-2.4-11.2-0.6   c-5.4,2.4-8,11.1-5.3,16.2H461c2,9.5,10.1,17.5,21.2,22.2c-0.5,0.5-0.9,1.1-0.9,1.9c0,1.4,1.1,2.5,2.5,2.5h39.8   c1.4,0,2.5-1.1,2.5-2.5c0-0.7-0.3-1.4-0.9-1.9c11.1-4.6,19.1-12.7,21.2-22.2h-7.3C541,423.3,540.3,417.2,534.3,414.8z M535.4,428.7   h-1.6c0.7-3.3,0.7-6.8-0.4-10.3c0,0,0,0,0,0C537.4,420.4,537.1,424.9,535.4,428.7z M515.6,428.7c-0.1-0.2-0.1-0.4-0.2-0.6   c0.8-2.1,3.8-5.4,5.1-6.8c0.1,0,0.2,0.1,0.3,0.1c0.7,2.3,0.9,4.8,0.8,7.2H515.6z M503.3,428.7c0.1-1.2,1.2-2.3,2.7-3.4   c-0.1,1.2-0.1,2.3,0.1,3.4H503.3z M515.5,414.9c1.3,0.6,2.4,1.5,3.3,2.6c-0.9-0.1-1.9-0.1-2.9-0.1c-1,0.1-2.2,0.3-3.6,0.7   C513.3,417,514.4,415.9,515.5,414.9z M512.4,422.1c0.9-0.3,1.6-0.6,2.1-0.7c0.4-0.1,0.9-0.2,1.3-0.3c-0.8,0.9-1.6,1.9-2.2,2.9   C513.2,423.4,512.8,422.7,512.4,422.1z M504.2,419.2c0.8,0.4,1.6,0.9,2.3,1.5c-3.1,1.7-5.8,4.1-6.6,6.7c-0.1-0.1-0.2-0.2-0.3-0.4   c0.2-2.6,2.5-5.9,3.6-7.4c0.2-0.2,0.3-0.4,0.5-0.6C503.9,419,504,419.1,504.2,419.2z M496.6,424c-1.2-0.9-2.5-1.7-3.8-2.3   c0.4-0.3,0.8-0.6,1.2-0.9c1.8-1.3,3.7-2.2,5.6-2.4C498.3,420.1,497.2,422.1,496.6,424z M485.3,423.3c0.2,0,0.3,0,0.5,0   c-0.2,0.3-0.3,0.5-0.5,0.8C485.3,423.9,485.3,423.6,485.3,423.3z M485.8,419.8c0.1-0.4,0.3-0.8,0.4-1.3c0.4,0.5,0.8,0.9,1.1,1.4   C486.8,419.9,486.3,419.8,485.8,419.8z M488,428.7c-0.2-1.5,0.6-2.9,1.7-4.3c0.6,1.5,1,3,1.2,4.3H488z M494.2,426.5   c0.7,0.5,1.3,1.1,1.9,1.8c0,0.2,0,0.3,0.1,0.5h-1.5C494.5,428,494.3,427.2,494.2,426.5z M529,417.4c0.5,0.9,1,1.9,1.3,2.8   c0.9,2.7,0.7,5.5,0,8.3c-0.6-4.2-3.1-7.7-6.8-9.6C525.2,418,527.1,417.4,529,417.4z M519.3,412.8c2.6-0.8,5-0.1,6.9,1.3   c-1.5,0.4-3,1-4.4,1.8c-0.8-1.1-1.8-2.1-2.9-2.9C519.1,412.9,519.2,412.8,519.3,412.8z M510.7,414.2c-0.4,0.5-0.8,1-1.2,1.6   c-0.2-0.4-0.4-0.8-0.7-1.1C509.4,414.5,510.1,414.3,510.7,414.2z M493.3,411.7c4.5-1.5,8-0.4,10.4,2.1c-0.4,0.3-0.7,0.6-1.1,1   c-0.5-0.1-0.9-0.1-1.4-0.1c-3-0.1-7.2,1.5-10.6,3.9c-0.8-1.1-1.7-2.2-2.6-3.1C489.3,413.8,491.1,412.5,493.3,411.7z M471,422.3   c0.3-3.7,2.5-6.2,6-7.3c2.2-0.7,4.4-0.2,6.2,0.9c-0.6,1.3-1,2.7-1.2,4.1c-4.5,1-8.9,4.4-8.7,8.6C470.9,427.9,470.9,424.5,471,422.3   z M477.1,428.7c-0.4-2.5,2.6-4.2,4.7-4.9c0.1,1.7,0.4,3.3,0.9,4.9H477.1z M525.2,428.7c0.1-1.3,0-2.5-0.1-3.8   c0.7,1.1,1.2,2.4,1.5,3.8H525.2z"
   id="path4360" />
	<path
   class="st1"
   d="M548.5,389.7c-3.8-2.5-6,3.3-6,3.3l-9.9,19.3c3.1-0.2,4.9,2,4.9,2l11.4-19   C551.4,391.4,548.5,389.7,548.5,389.7z"
   id="path4362" />
</g>
<g
   id="g4370">
	<path
   class="st1"
   d="M624.8,281.2c-7.6-4.4-16.3-3.5-20.7,4.1c-3.1,5.3-2.7,11.7,0.4,16.5c-2.7,1.4-5.4,3-8.1,4.4   c-1,0.5-2.2,2.2-1.5,3.3c0.7,1.1,2.2,0.7,3.2,0.2c-0.5,0.5-1,0.9-1.5,1.4c-2,2-0.2,3.7,1.9,3.8c-0.7,1,0.6,1.9,1.5,2   c1.3,0.2,2.8-0.1,3.8-1.1c0,0.1-0.1,0.1-0.1,0.2c-0.6,1.7,4.6,4.5,5,3.5c1-2.9,2.3-5.6,3.5-8.3c0.4-0.9,0.8-1.9,1.1-2.8   c6.9,2.1,14.5-0.7,18.3-7.2C635.9,293.6,632.3,285.6,624.8,281.2z"
   id="path4366" />
	<path
   class="st1"
   d="M675.9,247.1c-8.6,3.2-16.2,7.9-23.7,13.1c5.1-4.7,10.4-9.1,16.6-12.4c2.2-1.2-2.1-5.5-3.9-4.5   c-1.1,0.6-2.2,1.2-3.2,1.9c0.6-0.6,1.3-1.2,1.9-1.8c0.4-0.4-4.7-2.2-5.8-1.2c-2.8,2.6-5.5,5.2-8.2,7.9c3.9-4.7,8-9.2,12.4-13.4   c2.8-2.7-2.1-5.7-4.3-3.4c-7.6,7.4-14.4,15.4-20.8,23.8c-4.6,6.2-10.8,13-14,20.5c1.2,0.4,2.4,1,3.6,1.7c1.9,1.1,3.5,2.4,4.8,3.9   c7.3-3.6,13.3-10.4,19.9-15.1c9.4-6.7,18.7-13.3,29.6-17.3C681.9,250.2,677.5,246.5,675.9,247.1z"
   id="path4368" />
</g>
<g
   id="g4376">
	<path
   class="st1"
   d="M558.3,259.8c-17.2-6.6-25.3,19.9-25.3,19.9c-12.7,32.1-34.6,40.8-34.6,40.8c35.3-3.9,59.4-29.9,59.4-29.9   C575.6,267,558.3,259.8,558.3,259.8z"
   id="path4372" />
	<path
   class="st1"
   d="M568.6,238.9c0,0-1.9,0.1-1.7,2.9c0,0,0.1,4.2-3.8,11.8c0,0-3.7-1.2-7.1,2.9c0,0,5.4,0.2,8.3,4.6   c0,0,1.4-2,0.5-6.1c0,0,4.7-6.9,5.1-13.2C569.9,241.8,570.2,239.3,568.6,238.9z"
   id="path4374" />
</g>
<g
   id="g4384">
	<path
   class="st1"
   d="M492.8,500.8c0,2.6-2.1,4.8-4.8,4.8h-5.4c-2.6,0-4.8-2.1-4.8-4.8v-5.4c0-2.6,2.1-4.8,4.8-4.8h5.4   c2.6,0,4.8,2.1,4.8,4.8V500.8z"
   id="path4378" />
	<path
   class="st1"
   d="M544.6,498.1c1.6-1.7-1-4.2-2.5-2.5c-3.6,3.9-7.6,7.5-11.3,11.3c-0.3,0.3-0.4,0.7-0.5,1.1   c-0.1,0.1-0.1,0.3-0.2,0.4c-1.5,9.6-2.4,19.3-3.6,29h-13.4c0,0.1,0,0.1,0,0.2v33.6c0,6.7,5.5,12.2,12.2,12.2h5   c6.7,0,12.2-5.5,12.2-12.2v-33.6c0-0.1,0-0.1,0-0.2H530c1.2-9.3,2-18.7,3.5-28c0-0.1,0-0.1,0-0.2   C537.2,505.4,541,501.9,544.6,498.1z"
   id="path4380" />
	<path
   class="st1"
   d="M500,560.5c0,0-3.3-7.6,0-21.1c0,0,8.3-20.5-8.9-31.4h-0.9h-9.6h-0.9c-17.2,10.9-8.9,31.4-8.9,31.4   c3.3,13.5,0,21.1,0,21.1c-8.6,21.5,2,22.8,2,22.8h7.2h11h7.2C498,583.3,508.6,582,500,560.5z M488.6,537.7h-6.5c-5,0-9-4.1-9-9.1   c0-5,4.1-9.1,9-9.1h6.5c5,0,9.1,4.1,9.1,9.1C497.6,533.6,493.6,537.7,488.6,537.7z"
   id="path4382" />
</g>
<g
   id="g4390">
	<path
   class="st1"
   d="M212.7,266.5l1.8,10.5l10.7-7.5l12.2,6.5l6.9-7.6c-9.4-4.2-12-9.7-19.8-7c0.6-3.7,4.8-7.4,7.3-9.7   c4.6-4.1,11.2-6.1,17-7.6c2.4-0.6,1.4-4.3-1-3.7c-7.2,2-14.2,4.6-19.8,9.7c-3,2.7-6.8,7.1-7.3,11.3c-7.7-2.7-12.5,2.8-20.2,5.6   L212.7,266.5z"
   id="path4386" />
	<path
   class="st1"
   d="M246.5,271l-7.1,8.4l-13.5-6.8l-13.4,8.8l-2.2-12.1l-13.4,0.7c-9.3,6.8-15.2,17.4-15.2,29.3   c-0.1,24.8,16.2,17.8,37.9,18.7c20.7,0.9,41,6.3,41-18.7C260.6,288,255.1,277.8,246.5,271z"
   id="path4388" />
</g>
<g
   id="g4424">
	<path
   class="st1"
   d="M442,245.8c0,0-7-7.4-11.5-6.4c0,0,8.2-3,13,2c0,0,5.3-15.8-29.4-6.5C414.1,234.8,437.5,269.1,442,245.8z"
   id="path4392" />
	<path
   class="st1"
   d="M450.5,232.5"
   id="path4394" />
	<g
   id="g4420">
		<path
   class="st1"
   d="M435.3,270.1c0,3.8-3.1,6.9-6.9,6.9c-3.8,0-6.9-3.1-6.9-6.9c0-3.8,3.1-6.9,6.9-6.9    C432.2,263.2,435.3,266.3,435.3,270.1z"
   id="path4396" />
		<path
   class="st1"
   d="M451.6,270.1c0,3.8-3.1,6.9-6.9,6.9c-3.8,0-6.9-3.1-6.9-6.9c0-3.8,3.1-6.9,6.9-6.9    C448.5,263.2,451.6,266.3,451.6,270.1z"
   id="path4398" />
		<path
   class="st1"
   d="M467.6,270.1c0,3.8-3.1,6.9-6.9,6.9c-3.8,0-6.9-3.1-6.9-6.9c0-3.8,3.1-6.9,6.9-6.9    C464.5,263.2,467.6,266.3,467.6,270.1z"
   id="path4400" />
		<path
   class="st1"
   d="M460.1,284c0,3.8-3.1,6.9-6.9,6.9c-3.8,0-6.9-3.1-6.9-6.9c0-3.8,3.1-6.9,6.9-6.9    C457.1,277.1,460.1,280.2,460.1,284z"
   id="path4402" />
		<path
   class="st1"
   d="M443.4,284c0,3.8-3.1,6.9-6.9,6.9c-3.8,0-6.9-3.1-6.9-6.9c0-3.8,3.1-6.9,6.9-6.9    C440.3,277.1,443.4,280.2,443.4,284z"
   id="path4404" />
		<path
   class="st1"
   d="M452.9,297.8c0,3.8-3.1,6.9-6.9,6.9c-3.8,0-6.9-3.1-6.9-6.9s3.1-6.9,6.9-6.9    C449.8,290.9,452.9,294,452.9,297.8z"
   id="path4406" />
		<path
   class="st1"
   d="M437.9,297.8c0,2.5-2,4.5-4.5,4.5c-2.5,0-4.5-2-4.5-4.5c0-2.5,2-4.5,4.5-4.5    C435.9,293.3,437.9,295.3,437.9,297.8z"
   id="path4408" />
		<path
   class="st1"
   d="M442.1,308.2c0,2.5-2,4.5-4.5,4.5c-2.5,0-4.5-2-4.5-4.5c0-2.5,2-4.5,4.5-4.5    C440.1,303.7,442.1,305.7,442.1,308.2z"
   id="path4410" />
		<path
   class="st1"
   d="M440.5,259.2c0,2.1-1.7,3.7-3.7,3.7c-2.1,0-3.7-1.7-3.7-3.7c0-2.1,1.7-3.7,3.7-3.7    C438.8,255.4,440.5,257.1,440.5,259.2z"
   id="path4412" />
		<path
   class="st1"
   d="M452.6,309.9c0,2.1-1.7,3.7-3.7,3.7c-2,0-3.7-1.7-3.7-3.7c0-2.1,1.7-3.7,3.7-3.7    C450.9,306.2,452.6,307.9,452.6,309.9z"
   id="path4414" />
		<path
   class="st1"
   d="M446.6,316.5c0,2-1.7,3.7-3.7,3.7c-2.1,0-3.7-1.7-3.7-3.7c0-2.1,1.7-3.7,3.7-3.7    C444.9,312.8,446.6,314.4,446.6,316.5z"
   id="path4416" />
		<path
   class="st1"
   d="M456.6,259.2c0,2.1-1.7,3.7-3.7,3.7c-2.1,0-3.7-1.7-3.7-3.7c0-2.1,1.7-3.7,3.7-3.7    C455,255.4,456.6,257.1,456.6,259.2z"
   id="path4418" />
	</g>
	<path
   class="st1"
   d="M446.2,255c-2.2-12,17.8-19.8,26.6-22.6c1.9-0.6,1.1-3.5-0.8-2.9c-10.7,3.4-31.4,12-28.7,26.3   C443.6,257.8,446.5,256.9,446.2,255L446.2,255z"
   id="path4422" />
</g>
<g
   id="g4430">
	<path
   class="st1"
   d="M199.9,898.7h0.2v2.7h78.6v-2.7h0.2c1.3,0,2.3-1,2.3-2.3c0-1.3-1-2.3-2.3-2.3h-0.1   c-1.4-19.1-16.2-36.1-35.1-38.4c-0.4-1.1-1.2-2.1-2.2-2.6c1.5-0.8,2.5-2.3,2.5-4c0-2.5-2-4.6-4.6-4.6c-2.5,0-4.6,2-4.6,4.6   c0,1.8,1,3.3,2.5,4c-1,0.5-1.9,1.5-2.2,2.6c-18.8,2.3-33.7,19.4-35.1,38.4h-0.1c-1.3,0-2.3,1-2.3,2.3   C197.6,897.7,198.6,898.7,199.9,898.7z"
   id="path4426" />
	<path
   class="st1"
   d="M278.9,904.4h-79c-1.3,0-2.3,1-2.3,2.3c0,1.3,1,2.3,2.3,2.3h0.2v2.7h78.6V909h0.2c1.3,0,2.3-1,2.3-2.3   C281.2,905.5,280.2,904.4,278.9,904.4z"
   id="path4428" />
</g>
<g
   id="g4440">
	<path
   class="st1"
   d="M274.8,651.7h-53.2c-7.4,0-13.4,5.9-13.7,13.2h80.6C288.2,657.6,282.2,651.7,274.8,651.7z"
   id="path4432" />
	<path
   class="st1"
   d="M246,647.9h4.5c1.7,0,3.1-1.4,3.1-3.1v-4.5c0-1.7-1.4-3.1-3.1-3.1H246c-1.7,0-3.1,1.4-3.1,3.1v4.5   C242.9,646.5,244.2,647.9,246,647.9z"
   id="path4434" />
	<path
   class="st1"
   d="M299.3,676.5c0-2-2.9-1.9-2.9-1.9h-7.9v-4.1h-80.6v4.1h-7.9c0,0-2.8-0.1-2.8,1.9c0,0,0.3,3.4,10.8,8.3v37   c0,7.6,6.1,13.7,13.7,13.7h53.2c7.6,0,13.7-6.1,13.7-13.7v-37C299,680,299.3,676.5,299.3,676.5z M259.2,715c0,6.1-4.9,11-11,11   c-6.1,0-11-4.9-11-11v-16.4c0-6.1,4.9-11,11-11c6.1,0,11,4.9,11,11V715z"
   id="path4436" />
	<path
   class="st1"
   d="M248.2,690.5c-4.8,0-8.7,3.9-8.7,8.7c0,4.8,3.9,8.7,8.7,8.7c4.8,0,8.7-3.9,8.7-8.7   C256.9,694.4,253,690.5,248.2,690.5z"
   id="path4438" />
</g>
<g
   id="g4450">
	<g
   id="g4446">
		<path
   class="st1"
   d="M732.6,454c8.1,6.5,23.1-4.7,38.4-20.5c15.3-15.8,25.2-30.2,18.5-38.1L732.6,454z"
   id="path4442" />
		<path
   class="st1"
   d="M772.4,378.8c-8.1-6.5-22.6,4.6-37.9,20.4c-15.3,15.8-25.7,30.4-19,38.3L772.4,378.8z"
   id="path4444" />
	</g>
	<path
   class="st1"
   d="M776.8,379.4l-60.5,62.3c-2.9,3-2.8,7.8,0.2,10.7l1.1,1.1c3,2.9,7.8,2.8,10.7-0.2l60.5-62.3   c2.9-3,2.8-7.8-0.2-10.7l-1.1-1.1C784.5,376.4,779.7,376.4,776.8,379.4z M785.2,385.2c-0.4,0.6-1.2,0.8-1.8,0.4   c-3.6-2.2-6.3,0.4-6.5,0.7c-2.7,2.7-1.1,5.4-0.9,5.7c2.7,4.1,0.6,8.1-0.9,9.6c-0.3,0.4-0.6,0.7-0.8,1c-3.3,3.4-7.8,2.4-9.9,1.3   c-3.5-1.4-6.1,0.9-6.2,1c-3.7,3.2-1.9,6.8-1.7,7.2c2.2,6.3-2.5,10.2-2.7,10.4c-3.5,3.3-9.1,1.6-9.4,1.5c-3.5-1-5.4,0.9-5.5,1.1   c-2.6,2.9-1,6.3-1,6.4c2.4,5.1,0.5,7.6-0.3,8.3c-1.2,1.7-3.6,4.8-9.4,2.1c-4-1.8-5.4-0.2-5.5-0.2c-2.5,2.7,0.2,5.8,0.3,5.9   c0.5,0.6,0.4,1.4-0.1,1.9c-0.6,0.5-1.4,0.4-1.9-0.1c-1.5-1.7-3.6-6-0.3-9.4c0-0.1,2.6-3.2,8.6-0.5c4,1.8,5.1,0.2,6.2-1.3   c0.1-0.1,0.2-0.3,0.4-0.4c0,0,1.4-1.3-0.4-5.2c-0.1-0.2-2.3-5.1,1.4-9.3c0.1-0.1,3.1-3.3,8.2-1.8c0.1,0,4.4,1.3,6.8-1   c0.2-0.2,3.4-3,2-7.3c-1-1.8-2-6.4,2.4-10.2c0.1-0.1,3.8-3.5,9.1-1.4c0.3,0.2,4.7,2.4,7.6-1.6c0.2-0.3,2.9-3.1,0.7-6.5   c-1.1-1.6-2.2-5.6,1.2-9c1.4-1.6,5.4-3.8,9.9-1.1C785.3,383.7,785.5,384.5,785.2,385.2z"
   id="path4448" />
</g>
<g
   id="g4456">
	<path
   class="st1"
   d="M371.3,251.6l-0.3,0.1c-0.1-3-0.6-11.9-2.4-15.9c-2.2-4.9-5.1,1.8-5.1,1.8s2.7,7.5,2.8,14.8l-0.9,0.1   c-7.2,50.8-57.8,54.6-57.8,54.6c-1.9,1.5-3.7,1.1-3.7,1.1c-2,1.9-0.5,4.4-0.5,4.4l2.6,0.9c0.2,1.3,1.6,1.7,1.6,1.7   c12.7,5,26.6,2.2,26.6,2.2C384.9,304.3,378.3,269.1,371.3,251.6z"
   id="path4452" />
	<path
   class="st1"
   d="M361.4,257.7l-0.2-0.1c0.8-1.6,3-6.6,3.1-9.3c0.1-3.3-3.3-0.4-3.3-0.4s-0.6,4.8-2.6,8.9l-0.5-0.2   c-18.1,25.7-46.8,13.6-46.8,13.6c-1.4,0.3-2.3-0.4-2.3-0.4c-1.6,0.5-1.5,2.2-1.5,2.2l1.2,1.2c-0.2,0.8,0.4,1.4,0.4,1.4   c5.6,6.3,13.9,8.6,13.9,8.6C354.1,290.4,360.3,269.3,361.4,257.7z"
   id="path4454" />
</g>
<g
   id="g4468">
	<path
   class="st1"
   d="M603.6,533.6c0,0-8.6-3.8-2-10.8c0,0,10.6-9.7,17.4-12.4c0,0,4.8-2.3,8.1,3.4c0,0,8.8,15.6,9.9,29.8   c0,0,0.7,2.5-2.7,5.4c0,0-4.7,2.7-7.9,2.3C626.5,551.2,608.6,537.7,603.6,533.6z"
   id="path4458" />
	<path
   class="st1"
   d="M631.7,512.9c0,0,8.6,11.3,9,29.6c0,0,8.5-2.9,11.4-0.8c0,0,7.2-28.8-7.3-29.3L631.7,512.9z"
   id="path4460" />
	<path
   class="st1"
   d="M657,519.7c0,0,3.3,6.8-0.2,20.3c0,0,5.2-0.5,8.9,1.3c0,0,7.8,3.6,5.7-8.8C671.4,532.5,668.2,522.8,657,519.7z   "
   id="path4462" />
	<path
   class="st1"
   d="M598.4,534.1c0,0,9,6.6,24.7,18.7c0,0-5.7,6.9-4.7,10.4c0,0-29.5-3.3-25-16.9L598.4,534.1z"
   id="path4464" />
	<path
   class="st1"
   d="M596,560.3c0,0,5.3,5.4,19.1,6.8c0,0-2.3,4.7-1.9,8.8c0,0,0.7,8.6-10.2,2.4C603.1,578.3,595.1,571.9,596,560.3   z"
   id="path4466" />
</g>
<g
   id="g4476">
	<path
   class="st1"
   d="M664.6,680.9h-7.4c-0.1-4.7-3.9-8.5-8.6-8.5h-20.3v-22.2h35.9c-1.9-14.3-17.9-25.4-37.5-25.4   c-19.5,0-35.6,11.2-37.5,25.4h34.4v22.2h-18.2c-4.8,0-8.7,3.9-8.7,8.7v8c3.2-1.5,6.8-2.4,10.6-2.4c13.6,0,24.6,11,24.6,24.6   c0,1.9-0.2,3.8-0.7,5.6h17.3c4.8,0,8.7-3.9,8.7-8.7v-22.7h7.4c1.3,0,2.3-1,2.3-2.3C666.9,681.9,665.9,680.9,664.6,680.9z"
   id="path4470" />
	<path
   class="st1"
   d="M646.2,717.5c-1.3,0-2.3,1-2.3,2.3v9.6c0,1.3,1,2.3,2.3,2.3c1.3,0,2.3-1,2.3-2.3v-9.6   C648.6,718.6,647.5,717.5,646.2,717.5z"
   id="path4472" />
	<path
   class="st1"
   d="M607.4,690.6c-11.4,0-20.6,9.2-20.6,20.6c0,11.4,9.2,20.6,20.6,20.6c11.4,0,20.6-9.2,20.6-20.6   C628,699.8,618.7,690.6,607.4,690.6z"
   id="path4474" />
</g>
<g
   id="g4482">
	<path
   class="st1"
   d="M676.4,380.5c0.4-1.6-3.3-3.1-2.8-1.6c0.2,0.7-0.1,1.5-0.5,2.1c-0.8-1.2-1.5-1.9-1.5-1.9   c-6.5-6.8-16.5,2.5-16.5,2.5c-19.4,10.6-37.2,0-37.2,0c-9.8-6.6-16.4-2.5-18.7-0.6c-0.5-0.6-0.8-1.4-0.6-2.1c0.5-1.5-3.2,0-2.8,1.6   c0.4,1.6-2.2,0.8-1.9,2.2c0.3,1.4,0.4,2.9,2.4,2.6c-4.1,9.9,9.8,17.9,9.8,17.9c30.3,16.2,57,0.4,57,0.4c11.8-7.3,13-14.1,11.9-18.7   c0.3,0.2,0.6,0.3,0.9,0.4c2.1,0.5,2.2-1.1,2.5-2.5C678.6,381.3,676,382.1,676.4,380.5z"
   id="path4478" />
	<path
   class="st1"
   d="M641.2,420.7C641.2,420.7,641.2,420.7,641.2,420.7c-1.7,1.6-3,0.3-3.2,0.1v-8.6c-1.2,0.1-2.5,0.1-3.8,0.1v8.5   c0,0,0,0,0,0c-1.7,1.6-3,0.3-3.2,0v-8.6c-1.2-0.1-2.5-0.2-3.8-0.3v11.1c0,0,0,0,0,0c0,0,0,0.1,0,0.1c0,3.7,2.3,6.8,5.6,8.1V465h6.5   v-33.9c3.3-1.3,5.6-4.4,5.6-8.1c0,0,0-0.1,0-0.1c0,0,0,0,0-0.1v-11.5c-1.2,0.2-2.5,0.4-3.8,0.5V420.7z"
   id="path4480" />
</g>
<g
   id="g4498">
	<g
   id="g4494">
		<path
   class="st1"
   d="M723.5,500.8c-1,0-1.8,0.8-1.8,1.8v20.6c-1.6,1.3-2.5,0.2-2.6,0v-20.6c0-1-0.8-1.8-1.8-1.8    c-1,0-1.8,0.8-1.8,1.8v20.6c-1.6,1.3-2.5,0.2-2.6,0v-20.6c0-1-0.8-1.8-1.8-1.8c-1,0-1.8,0.8-1.8,1.8v21.9c0,0.1,0,0.2,0,0.2    c0.1,3.1,1.9,5.8,4.5,7v51c0,1.9,1.5,3.4,3.4,3.4c1.9,0,3.4-1.5,3.4-3.4v-51c2.6-1.3,4.4-3.9,4.5-7c0-0.1,0-0.2,0-0.2v-21.9    C725.2,501.6,724.5,500.8,723.5,500.8z"
   id="path4484" />
		<path
   class="st1"
   d="M711.4,534c-1.1-0.7-2-1.5-2.8-2.5c-0.8,3.4-1.2,6.8-1.2,10.4c0,6.7,1.5,13,4,18.7V534z"
   id="path4486" />
		<path
   class="st1"
   d="M782.3,506.3"
   id="path4488" />
		<path
   class="st1"
   d="M785.5,501.2c3,0,3.6,5.3,3.6,8.4l1.9,29.6c0,2.6-1.8,4.8-4.3,5.4v38.2c0,1.9-1.5,3.4-3.4,3.4    c-1.9,0-3.4-1.5-3.4-3.4v-43.6v-8.4v-24C780,500.9,782.5,501.2,785.5,501.2z"
   id="path4490" />
		<path
   class="st1"
   d="M792.4,520.2l1.1,19.5c0.6,6-4.2,8.1-4.7,8.3v21.2c5.7-7.6,9.1-17,9.1-27.2    C797.9,534,795.9,526.6,792.4,520.2z"
   id="path4492" />
	</g>
	<path
   class="st1"
   d="M752.7,496.6c-8.8,0-17.1,2.5-24,6.9v20.6c0,0.1,0,0.2,0,0.3c-0.1,3.9-2.1,7.3-5.1,9.3v42.7   c7.9,6.6,18,10.6,29.1,10.6c9.2,0,17.8-2.8,25-7.5v-75.5C770.5,499.4,761.9,496.6,752.7,496.6z M752.7,565.5   c-13,0-23.6-10.6-23.6-23.6c0-13,10.6-23.6,23.6-23.6c13,0,23.6,10.6,23.6,23.6C776.3,554.9,765.7,565.5,752.7,565.5z"
   id="path4496" />
</g>
<g
   id="g4514">
	<polygon
   class="st1"
   points="611.8,153.8 611.8,146.6 613.3,146.7 613.3,145 609.8,145 609.8,146.4 611,146.5 610.9,153.4  "
   id="polygon4500" />
	<polygon
   class="st1"
   points="618.9,147.1 619,145 614,145 613.8,154.6 618.6,156.5 618.7,154.7 614.9,153.4 615,150.8 618.4,151.5    618.5,149.6 615.1,149.1 615.1,146.8  "
   id="polygon4502" />
	<path
   class="st1"
   d="M626.1,156.4l0.8,3.5l3,1.2l-4-16.1h-2.5l-4.3,11.7l1.8,0.7l0.9-2.4L626.1,156.4z M624.4,148.4l1.2,5.5l-3-0.7   L624.4,148.4z"
   id="path4504" />
	<path
   class="st1"
   d="M667.3,152.7c1.8,1.4,4.1,2.2,6.6,2.2c6,0,11-4.9,11-11c0-5.4-3.9-9.8-9-10.8c0.3-1.3,0.5-2.6,0.7-3.9h-45.4   c-4,3.1-7.7,7-8.6,11.6h3.5c3.4,0,6.5,2.2,6.5,4.9v15.7c0,2.6-3,3.7-6.3,2.6l-14.6-4.8c-1.9-0.6-3.5-2.6-3.5-4.4l-0.3-10.8   c-0.1-1.8,1.4-3.3,3.4-3.3h5.8c0.5-4.4,3-8.3,6.2-11.6H583c3.1,21,17.8,37.7,36.6,42.2h-34.5c0.5,2.2,5.6,4.2,13.5,5.7   c-0.2,0.3-0.3,0.7-0.3,1.1c0,1.3,1,2.3,2.3,2.3h60c1.3,0,2.3-1,2.3-2.3c0-0.4-0.1-0.7-0.3-1.1c7.9-1.5,12.9-3.4,13.5-5.7H640   C651,169,660.6,162.2,667.3,152.7z M675.2,136.2c3.8,0.6,6.7,3.9,6.7,7.8c0,4.4-3.6,7.9-7.9,7.9c-1.9,0-3.6-0.6-4.9-1.7   C671.7,145.9,673.8,141.2,675.2,136.2z"
   id="path4506" />
	<path
   class="st1"
   d="M645.9,115.4c0.8,0.4,2.5-2.7,1.5-3.1c-2.1-0.9-6.9-2.9-6.5-7c0.2-2.8,1.9-5.1,3-7.4c1.9-3.7,3.4-8,0.3-11.3   c-0.7-0.8-1-0.1-0.3,0.7c4.1,4.5-3.2,12.3-4.6,16.8C637.5,110.7,641.6,113.5,645.9,115.4z"
   id="path4508" />
	<path
   class="st1"
   d="M618.3,112.4c0.8,0.4,2.5-2.7,1.5-3.1c-2.1-0.9-6.8-2.9-6.5-7c0.2-2.8,1.9-5.1,3-7.4c1.8-3.7,3.4-8,0.3-11.3   c-0.7-0.8-1-0.1-0.3,0.7c4.1,4.5-3.2,12.3-4.5,16.8C609.9,107.7,614.1,110.5,618.3,112.4z"
   id="path4510" />
	<path
   class="st1"
   d="M631.4,119.4c0.9,0.5,2.8-3.7,1.7-4.3c-2.3-1.3-7.6-4-7.2-9.8c0.3-3.9,2.1-7.2,3.4-10.4   c2-5.2,3.7-11.1,0.3-15.8c-0.8-1.1-1.1-0.1-0.3,1c4.6,6.2-3.6,17.1-5,23.5C622,112.9,626.7,116.8,631.4,119.4z"
   id="path4512" />
</g>
<g
   id="g4528">
	<path
   class="st1"
   d="M145.3,169.6H66.4c0.4,1.9,4.8,3.6,11.7,4.9c-0.1,0.3-0.2,0.6-0.2,0.9c0,1.1,0.9,2,2,2h52.1c1.1,0,2-0.9,2-2   c0-0.3-0.1-0.6-0.2-0.9C140.5,173.3,144.9,171.6,145.3,169.6z"
   id="path4516" />
	<path
   class="st1"
   d="M140.2,104.6c0.3-2.5,0.5-4.8,0.6-6.8H71c0.6,17.2,10.5,54.2,24,68.4h21.7c5.3-5.5,10-14.5,13.8-24.4   c0.8,0.1,1.7,0.2,2.5,0.2c10.7,0,19.4-8.7,19.4-19.4C152.4,114.5,147.4,107.5,140.2,104.6z M133.1,136.1c-0.1,0-0.3,0-0.4,0   c3-8.7,5.2-17.7,6.6-25.5c4.3,2.3,7.3,6.8,7.3,12C146.6,130.1,140.5,136.1,133.1,136.1z"
   id="path4518" />
	<g
   id="g4526">
		<path
   class="st1"
   d="M112.3,79.3c1.4,1.5,0.7,3.5-0.1,5.2c-0.5,1.1-1.3,2.1-1.4,3.4c-0.2,1.9,2,2.8,3,3.2c0.5,0.2-0.3,1.6-0.7,1.4    c-2-0.9-3.9-2.2-3-5.2c0.6-2.1,4-5.7,2.1-7.8C111.9,79.2,112,78.9,112.3,79.3L112.3,79.3z"
   id="path4520" />
		<path
   class="st1"
   d="M99.6,77.9c1.4,1.5,0.7,3.5-0.1,5.2c-0.5,1.1-1.3,2.1-1.4,3.4c-0.2,1.9,2,2.8,3,3.2c0.5,0.2-0.3,1.6-0.7,1.4    c-2-0.9-3.9-2.2-3-5.2c0.6-2.1,4-5.7,2.1-7.8C99.1,77.8,99.2,77.5,99.6,77.9L99.6,77.9z"
   id="path4522" />
		<path
   class="st1"
   d="M105.5,75.9c1.6,2.1,0.8,4.9-0.2,7.3c-0.6,1.5-1.4,3-1.6,4.8c-0.2,2.7,2.3,3.9,3.3,4.5c0.5,0.3-0.4,2.2-0.8,2    c-2.2-1.2-4.3-3-3.3-7.3c0.7-2.9,4.5-8,2.3-10.9C105,75.8,105.2,75.4,105.5,75.9L105.5,75.9z"
   id="path4524" />
	</g>
</g>
<g
   id="g4540">
	<path
   class="st1"
   d="M241.7,502c-0.1,0-0.2,0-0.3,0l0.3,3.8c0,0,0,0,0,0c23.3,0,42.2,19,42.2,42.2s-19,42.2-42.2,42.2   c-23.3,0-42.3-19-42.3-42.2c0-6.7,1.6-13,4.3-18.6l-3.4-1.8c-3,6.2-4.8,13.1-4.8,20.4c0,25.5,20.6,46.1,46.1,46.1   c25.5,0,46.1-20.6,46.1-46.1C287.8,522.7,267.2,502,241.7,502z"
   id="path4530" />
	<g
   id="g4536">
		<path
   class="st1"
   d="M203.5,523.5c6.9-11.7,19.2-19.9,33.5-20.9l-0.3-3.8c-15.7,1.1-29.2,10-36.7,22.9L203.5,523.5z"
   id="path4532" />
		<path
   class="st1"
   d="M216.2,530.1c-0.2-0.5-0.3-1-0.3-1.5c0-2.2,1.8-4,4-4c2.2,0,4,1.8,4,4c0,1.9-1.3,3.5-3.1,3.9l14.5,7.6    l2.8,1.5l1.5,0.8l-1.5-22.6c-1.5-0.6-2.6-2-2.6-3.7c0-1.5,0.8-2.8,2.1-3.5l-0.5-8c-13.6,1-25.3,8.7-31.9,19.8L216.2,530.1z"
   id="path4534" />
	</g>
	<path
   class="st1"
   d="M241.8,507.9l0.5,7.7c1.7,0.5,2.9,2,2.9,3.8c0,1.7-1,3.1-2.4,3.7l1.7,25c0,0.5-0.2,1.1-0.7,1.4   c-0.2,0.2-0.5,0.2-0.8,0.2c-0.2,0-0.5-0.1-0.7-0.2l-1.8-0.9l-7-3.6l-28-14.6c-2.6,5.3-4.1,11.3-4.1,17.7   c0,22.2,18.1,40.3,40.3,40.3c22.2,0,40.3-18.1,40.3-40.3C282,526,264,508,241.8,507.9z M221.9,568.8c-2.2,0-4-1.8-4-4   c0-2.2,1.8-4,4-4c2.2,0,4,1.8,4,4C225.9,567.1,224.1,568.8,221.9,568.8z M244.4,578.3c-2.2,0-4-1.8-4-4c0-2.2,1.8-4,4-4   c2.2,0,4,1.8,4,4C248.4,576.5,246.6,578.3,244.4,578.3z M255,559.1c-2.2,0-4-1.8-4-4c0-2.2,1.8-4,4-4c2.2,0,4,1.8,4,4   C259,557.3,257.2,559.1,255,559.1z M262.1,534.9c0-2.2,1.8-4,4-4c2.2,0,4,1.8,4,4c0,2.2-1.8,4-4,4   C263.9,538.9,262.1,537.1,262.1,534.9z M270.1,561.7c-2.2,0-4-1.8-4-4c0-2.2,1.8-4,4-4c2.2,0,4,1.8,4,4   C274.1,559.9,272.3,561.7,270.1,561.7z"
   id="path4538" />
</g>
<g
   id="g4546">
	<path
   class="st1"
   d="M507,641.4c0.9-0.9,1.5-2.2,1.5-3.6c0-2.8-2.3-5.1-5.1-5.1c-2.8,0-5.1,2.3-5.1,5.1c0,1.4,0.6,2.7,1.5,3.6   c-8.4,1.2-15.4,6.6-18.8,13.9h45C522.5,648,515.4,642.6,507,641.4z"
   id="path4542" />
	<path
   class="st1"
   d="M541.1,662.2c-2.3-4-5.3-4.8-7.5-4.8c-2.8,0-5.5,1.3-7.7,2.8v-2.7h-45.2v12.4c-9-16.1-20.7-13.8-20.7-13.8   l1.1,6.2c8.7,0,8.7,21.5,8.7,21.5c-1.3,8.9,6.6,12.8,10.9,14.1v17.9c0,4.1,3.3,7.5,7.5,7.5h30.3c4.1,0,7.5-3.3,7.5-7.5v-25.4   C532.9,685.7,547.7,673.7,541.1,662.2z M525.9,685v-19.3c2-1.8,5.1-4,7.7-4c1,0,2.4,0.3,3.7,2.6C541,670.7,534.1,678.9,525.9,685z"
   id="path4544" />
</g>
<g
   id="g4558">
	<path
   class="st1"
   d="M133.9,890.2c2.5,9.3-1,17.6-1,17.6c-0.3-12.4-6.5-19-9.2-21.4c-6.1-1.7-12.9-2.8-20.2-3.1   c5.4,10.9,0.7,22,0.7,22c-0.4-13.5-7.6-20.2-9.8-22c-6.9,0.4-13.4,1.5-19.2,3.2c4.8,10.6,0.4,21.3,0.4,21.3   c-0.3-9.5-3.9-15.6-6.8-19c-11.3,4.7-18.6,11.8-18.6,19.8c0,14,22.2,25.4,49.6,25.4c27.4,0,49.6-11.4,49.6-25.4   C149.3,901.4,143.4,894.8,133.9,890.2z"
   id="path4548" />
	<g
   id="g4556">
		<path
   class="st1"
   d="M119.5,832.6c4.1,4.5,2.1,10.2-0.4,15.2c-1.5,3-3.8,6.2-4.1,9.9c-0.4,5.5,5.9,8.1,8.7,9.4    c1.3,0.6-0.9,4.6-2.1,4.1c-5.7-2.5-11.3-6.3-8.7-15.1c1.8-6.1,11.7-16.6,6.1-22.6C118.1,832.5,118.5,831.5,119.5,832.6    L119.5,832.6z"
   id="path4550" />
		<path
   class="st1"
   d="M82.5,828.6c4.1,4.5,2.1,10.2-0.4,15.2c-1.5,3-3.8,6.2-4.1,9.9c-0.4,5.5,5.9,8.1,8.7,9.4    c1.3,0.6-0.9,4.6-2.1,4.1c-5.7-2.5-11.3-6.3-8.7-15.1c1.8-6.1,11.7-16.6,6.1-22.6C81.2,828.4,81.5,827.5,82.5,828.6L82.5,828.6z"
   id="path4552" />
		<path
   class="st1"
   d="M99.8,822.8c4.6,6.2,2.3,14.2-0.4,21.1c-1.7,4.3-4.2,8.6-4.5,13.9c-0.5,7.7,6.5,11.3,9.7,13.1    c1.5,0.8-1,6.5-2.3,5.8c-6.3-3.5-12.5-8.8-9.6-21.1c2-8.5,12.9-23.1,6.8-31.5C98.3,822.6,98.7,821.3,99.8,822.8L99.8,822.8z"
   id="path4554" />
	</g>
</g>
<path
   class="st1"
   d="M415.6,496.4c-6,3.5-12,6.9-17.8,10.8c7.1-6.2,14.3-12.3,21.6-18.4c2.5-2-0.3-6.2-2.8-4.2  c-7,5.8-13.9,11.7-20.8,17.6c3.6-5.6,7-11.5,11.1-16.7c2-2.5-1.7-5.8-3.7-3.3c-4.9,6-8.7,13.2-13,19.6c-3.9,5.8-8.7,10.9-12.4,16.8  c-0.2,0.3-0.4,0.5-0.5,0.8c-0.3,0.5-0.6,1-0.8,1.5c-7-3.7-11.9,2.7-11.9,2.7l-2.9,3.5c0,0,0,0,0,0c3.1,0.8,4.2,4.2,4.2,4.2  c-1.3-1.8-4.9-2.1-6-2.1l-4.7,5.7c0.1,0,0.1,0,0.2,0c3.1,0.8,4.2,4.2,4.2,4.2c-1.4-1.9-5.3-2.1-6.2-2.1l-4.7,5.7  c2.8,0.9,3.9,4.1,3.9,4.1c-1.2-1.6-4.2-2-5.6-2.1l-4.8,5.8c2.5,1.1,3.5,4,3.5,4c-1-1.4-3.6-1.9-5.1-2l-4.9,5.9  c2.2,1.2,3.1,3.8,3.1,3.8c-0.9-1.3-3-1.8-4.6-2l-5,6.1c1.9,1.3,2.7,3.6,2.7,3.6c-0.8-1.1-2.6-1.7-4.1-1.9l-2.1,2.6  c-3.5,4.9-1,8.8-0.7,9.2c0,0,0,0,0,0c0,0,0,0,0,0c0,0,0,0,0,0s0,0,0,0c0.5,0.3,4.5,2.4,9.1-1.4l44-42.3c0,0,5.8-5.2,2-11.7  c6.1-1.4,10.8-5.7,15.6-9.6c6.9-5.6,15-9.7,22.6-14.2C421.1,498.9,418.3,494.8,415.6,496.4z"
   id="path4560" />
<path
   class="st1"
   d="M412.9,643.9h-58c-4.7,0-8.5,3.8-8.5,8.5v6.8c0,4.7,3.8,8.5,8.5,8.5h27.7V696c0,0-0.2,3.7,3.1,5.2  c0,0-4,1.3-4,3.9c0,0,0.7,2.9,3.6,3.5c0,0-3.8,1.4-3.9,3.7c0,0-0.3,2.9,3.5,3.8c0,0-3.2,0.9-3.4,3.8c0,0-0.2,3.5,4.2,4.1  c0,0-6.6,2.4-3,6.2c0,0,2.8,1.9,3.7,3c0,0,0.4-2.5-1.4-4.3c0,0-1.1-1.2,0.6-1.7c0,0,4.1-1,4-3.1c0,0,0.2-3.2-4.3-3.8  c0,0,4.6-0.6,4.6-4c0,0-0.4-3.4-4.4-3.6c0,0,4.4-1.3,4.6-3.7c0,0-0.1-3.5-4.1-3.8c0,0,4.2-0.9,4.4-3.7c0,0,0-2.1-2.6-2.3  c0,0-2.1-1.4-1.9-4.5v-26.7h27c4.7,0,8.5-3.8,8.5-8.5v-6.8C421.4,647.7,417.6,643.9,412.9,643.9z"
   id="path4562" />
<g
   id="g4574">
	<path
   class="st1"
   d="M138.5,510.4c0-0.6-0.3-1.1-0.7-1.4c-0.4-0.3-1-0.5-1.6-0.4l-0.5,0.1l-63.2-7.3c0,0-10.5-1.3-12.8,13.5   c0,0-2.5,33-1.3,42.2c0,0,0.4,15.9,13,23.9c1.3,1.1,2.9,2,4.9,2.4c0.2,0.1,0.3,0.1,0.5,0.2c0,0-0.1-0.1-0.3-0.1   c0.8,0.2,1.7,0.3,2.6,0.3c0,0,0,0,0,0c1,0,2.1-0.1,3.3-0.3l55.2-14.4c0.8-0.2,1.4-1,1.4-1.8L138.5,510.4z M81.5,579.7   c-0.8,0.2-1.7,0.2-2.4,0.2c-6,0-8.1-5.3-8.4-6.2c-1.1-10.4,0-32.5,0-32.8c0.4-15,12-16.8,12.5-16.8c0.1,0,0.1,0,0.2,0l51.4-11.4   l0.4,53L81.5,579.7z"
   id="path4564" />
	<path
   class="st1"
   d="M91.7,534.6c-3.2,0-5.7,2.6-5.7,5.7c0,3.2,2.6,5.7,5.7,5.7c3.2,0,5.7-2.6,5.7-5.7   C97.4,537.1,94.8,534.6,91.7,534.6z"
   id="path4566" />
	<path
   class="st1"
   d="M87.4,558c-2,0-3.5,1.6-3.5,3.5c0,2,1.6,3.5,3.5,3.5c2,0,3.5-1.6,3.5-3.5C90.9,559.6,89.3,558,87.4,558z"
   id="path4568" />
	<path
   class="st1"
   d="M124.4,523.5c-2,0-3.5,1.6-3.5,3.5c0,2,1.6,3.5,3.5,3.5s3.5-1.6,3.5-3.5C127.9,525,126.3,523.5,124.4,523.5z"
   id="path4570" />
	<path
   class="st1"
   d="M115.4,546c-4.9,0-8.8,3.9-8.8,8.8c0,4.9,3.9,8.8,8.8,8.8c4.9,0,8.8-3.9,8.8-8.8   C124.2,549.9,120.3,546,115.4,546z"
   id="path4572" />
</g>
<path
   class="st1"
   d="M470.5,906.8c1.6-5.3,0.2-11.3-4.1-15.2l2.3-3.1l8,6.1l4.7-6.2l-8-6.1l2.9-3.9l9.9,7.5  c1.6-5.3,0.2-11.3-4.1-15.2l2.1-2.8l3.6,2.7c2.5,1.9,6.1,1.4,8-1.1l0.5-0.7c1.9-2.5,1.4-6.1-1.1-8l-3.6-2.7l7.9-10.4  c0.1-0.1,0.2-0.3,0.2-0.4c3.7,2,8.5,1.1,11.2-2.4c2.9-3.9,2.2-9.4-1.7-12.3c-3.9-2.9-9.4-2.2-12.3,1.7c-2.7,3.5-2.3,8.3,0.7,11.4  c-0.1,0.1-0.2,0.2-0.3,0.3l-7.9,10.4l-3.6-2.7c-2.5-1.9-6.1-1.4-8,1.1l-0.5,0.7c-1.9,2.5-1.4,6.1,1.1,8l3.6,2.7l-2.1,2.8  c-4.9-3-11-2.8-15.7,0.2l9.9,7.5l-2.9,3.9l-8-6.1l-4.7,6.2l8,6.1l-2.3,3.1c-4.9-3-11-2.8-15.7,0.2l9.9,7.5l-2.9,3.9l-3.6-2.7  c-2.5-1.9-6.1-1.4-8,1.1l-0.5,0.7c-1.9,2.5-1.4,6.1,1.1,8l3.6,2.7l-8.8,11.7c-0.5,0.6-0.4,1.5,0.3,2c0.6,0.5,1.5,0.4,2-0.3l8.8-11.7  l3.6,2.7c2.5,1.9,6.1,1.4,8-1.1l0.5-0.7c1.9-2.5,1.4-6.1-1.1-8l-3.6-2.7l2.9-3.9L470.5,906.8z M499.6,836.4c1.9-2.5,5.4-2.9,7.8-1.1  c2.5,1.9,2.9,5.4,1.1,7.8c-1.9,2.5-5.4,2.9-7.8,1.1C498.2,842.4,497.7,838.8,499.6,836.4z"
   id="path4576" />
<g
   id="g4588">
	<path
   class="st1"
   d="M765.5,676l-7.9,7.3c-0.1-1.4-0.2-2.8-0.4-4.2l8.4-7.8c0.5-0.5,0.5-1.2,0.1-1.7c-0.5-0.5-1.2-0.5-1.7-0.1   l-7.2,6.7c-1.3-5.8-3.8-10.5-7-13c0.2-1.2,0.3-2.5,0.3-3.8c0-4.9-1.3-9-3.1-11c0,0,0,0,0-0.1c-1.1-5.8,5.9-10.4,9.6-13.8   c1.4-1.3-1-2.3-2.1-1.3c-3.1,2.9-8.2,6.5-9.9,10.9c-1.9-4.3-6.7-7.8-9.8-10.6c-1.1-1-3.5,0-2.1,1.3c3.6,3.4,10.5,7.8,9.7,13.5   c-1.8,1.9-3.1,6.1-3.1,11c0,1.3,0.1,2.6,0.3,3.8c-3.2,2.5-5.7,7.2-7,13l-7.2-6.7c-0.5-0.5-1.3-0.4-1.7,0.1   c-0.5,0.5-0.4,1.3,0.1,1.7l8.4,7.8c-0.2,1.4-0.3,2.8-0.4,4.2l-7.9-7.3c-0.5-0.5-1.3-0.4-1.7,0.1c-0.5,0.5-0.4,1.3,0.1,1.7l9.6,8.9   c0.1,1.6,0.2,3.2,0.4,4.8l-7.6-7c-0.5-0.5-1.3-0.4-1.7,0.1c-0.5,0.5-0.4,1.3,0.1,1.7l10.1,9.4c0.7,2.5,1.6,4.8,2.8,6.8   c-2.7,2.5-4.4,6-4.4,10c0,1.1,0.1,2.2,0.4,3.2h0c0.2,3.8,2.3,6.8,4.8,6.8c1.7,0,3.2-1.5,4.1-3.6c0.8,2.2,2.3,3.6,4.1,3.6   c1.7,0,3.2-1.5,4.1-3.6c0.8,2.2,2.3,3.6,4.1,3.6c2.5,0,4.5-3,4.8-6.8h0c0.3-1,0.4-2.1,0.4-3.2c0-4-1.7-7.6-4.4-10   c1.1-1.9,2.1-4.2,2.7-6.8l10.1-9.4c0.5-0.5,0.5-1.2,0.1-1.7c-0.5-0.5-1.2-0.5-1.7-0.1l-7.6,7c0.2-1.5,0.4-3.1,0.4-4.8l9.6-8.9   c0.5-0.5,0.5-1.2,0.1-1.7C766.7,675.5,766,675.5,765.5,676z"
   id="path4578" />
	<path
   class="st1"
   d="M781.4,642.7c-3.2-7.9-10-12.7-15.8-11.5l12.4,30.7C783.1,658.8,784.6,650.6,781.4,642.7z"
   id="path4580" />
	<path
   class="st1"
   d="M762.8,655.4c3.7,5.9,9.8,8.8,14.3,6.9l-14.4-22.8C759.2,642.7,759.1,649.5,762.8,655.4z"
   id="path4582" />
	<path
   class="st1"
   d="M709.8,642.7c-3.2,7.9-1.6,16.1,3.4,19.2l12.4-30.7C719.8,630,713,634.8,709.8,642.7z"
   id="path4584" />
	<path
   class="st1"
   d="M728.4,655.4c3.7-5.9,3.6-12.7,0.1-15.9l-14.4,22.8C718.6,664.1,724.8,661.2,728.4,655.4z"
   id="path4586" />
</g>
<g
   id="g4594">
	<path
   class="st1"
   d="M781.5,238.3c11.9,23.6,3.2,52.7-20,65.9c-23.2,13.2-52.7,5.6-66.8-16.7l-5.6,3.2c15.9,25.4,49.2,34,75.5,19.1   c26.4-14.9,36.1-47.9,22.4-74.6L781.5,238.3z"
   id="path4590" />
	<path
   class="st1"
   d="M779.6,239.4l-10.9,6.2c0.3,1.3,0.2,2.7-0.4,4c-0.8,1.9-2.4,3.1-4.2,3.7c-0.1,0.6-0.2,1.2-0.5,1.7   c-1.5,3.3-5.4,4.8-8.7,3.3c-0.4-0.2-0.8-0.4-1.1-0.6c-1.8,2.1-4.9,2.8-7.6,1.6c-0.3-0.1-0.6-0.3-0.9-0.5l-48.5,27.5   c13.5,21.2,41.6,28.4,63.7,15.8C782.5,289.6,790.8,261.9,779.6,239.4z M724.9,290.3c-1.5,0.8-3.6-0.2-4.9-2.4   c-1.2-2.1-1-4.6,0.5-5.4c1.5-0.8,3.6,0.2,4.9,2.4C726.6,287.1,726.4,289.5,724.9,290.3z M744.4,266.7c1.5-0.8,3.6,0.2,4.9,2.4   c1.2,2.1,1,4.6-0.5,5.4c-1.5,0.8-3.6-0.2-4.9-2.4C742.7,270,742.9,267.6,744.4,266.7z M745.9,292.1c-1.5,0.8-3.6-0.2-4.9-2.4   c-1.2-2.1-1-4.6,0.5-5.4c1.5-0.8,3.6,0.2,4.9,2.4C747.6,288.8,747.4,291.2,745.9,292.1z M764.9,260.3c-1.2-2.1-1-4.6,0.5-5.4   c1.5-0.8,3.6,0.2,4.9,2.4c1.2,2.1,1,4.6-0.5,5.4C768.3,263.5,766.1,262.4,764.9,260.3z M767,284.5c-1.5,0.8-3.6-0.2-4.9-2.4   c-1.2-2.1-1-4.6,0.5-5.4c1.5-0.8,3.6,0.2,4.9,2.4C768.7,281.2,768.5,283.6,767,284.5z"
   id="path4592" />
</g>
<g
   id="g4612">
	<path
   class="st1"
   d="M414.8,442.2h-89c0.5,2.2,5.5,4.1,13.2,5.5c-0.2,0.3-0.3,0.7-0.3,1c0,1.2,1,2.3,2.3,2.3h58.7   c1.2,0,2.3-1,2.3-2.3c0-0.4-0.1-0.7-0.3-1C409.4,446.3,414.3,444.3,414.8,442.2z"
   id="path4596" />
	<g
   id="g4604">
		<path
   class="st1"
   d="M390.3,355.3c4.2,4.5,2.1,10.3-0.4,15.4c-1.5,3.1-3.8,6.3-4.1,10.1c-0.4,5.6,6,8.2,8.9,9.5    c1.3,0.6-0.9,4.7-2.1,4.2c-5.7-2.5-11.4-6.4-8.8-15.4c1.8-6.2,11.8-16.8,6.2-22.9C389,355.2,389.3,354.3,390.3,355.3L390.3,355.3z    "
   id="path4598" />
		<path
   class="st1"
   d="M352.8,351.2c4.2,4.5,2.1,10.3-0.4,15.4c-1.5,3.1-3.8,6.3-4.1,10.1c-0.4,5.6,6,8.3,8.9,9.5    c1.3,0.6-1,4.7-2.1,4.2c-5.7-2.5-11.4-6.4-8.8-15.4c1.8-6.2,11.8-16.8,6.2-22.9C351.4,351.1,351.8,350.2,352.8,351.2L352.8,351.2z    "
   id="path4600" />
		<path
   class="st1"
   d="M370.3,345.4c4.7,6.3,2.3,14.4-0.4,21.5c-1.7,4.3-4.2,8.7-4.6,14.1c-0.5,7.8,6.6,11.5,9.8,13.3    c1.5,0.8-1.1,6.6-2.3,5.9c-6.4-3.6-12.7-8.9-9.8-21.4c2-8.6,13.1-23.5,6.9-32C368.8,345.2,369.2,343.9,370.3,345.4L370.3,345.4z"
   id="path4602" />
	</g>
	<g
   id="g4610">
		<path
   class="st1"
   d="M360.5,414.1c-9.1-3.1-17.8-2.3-21.6,1.7l-4.6-1.6c0-1.7-1.2-3.5-3.2-4.1c-2.4-0.8-4.9,0.1-5.6,2.2    c-0.2,0.6-0.2,1.3,0,1.9c-0.5,0.4-1,0.9-1.2,1.5c-0.7,2,0.7,4.3,3.1,5.1c2,0.7,4,0.1,5-1.3l4.6,1.6c0.5,5.4,6.9,11.5,16,14.6    c10.7,3.7,21.1,1.9,23.2-4.1C378.3,425.6,371.3,417.8,360.5,414.1z"
   id="path4606" />
		<path
   class="st1"
   d="M412.6,418.5c-6,6.8-15.3-2.1-15.3-2.1c-17.3-16.8-30.5-12-38.2-5.8c0.8,0.2,1.6,0.5,2.4,0.8    c13.4,4.6,22.2,14.4,19.6,21.9c-0.8,2.3-2.6,4.1-5.1,5.4c39.2,3.3,40.2-14.4,40.2-14.4C417.5,419,412.6,418.5,412.6,418.5z"
   id="path4608" />
	</g>
</g>
<g
   id="g4622">
	<path
   class="st1"
   d="M523.6,177.6h-41.5c0.2,1,2.5,1.9,6.1,2.6c-0.1,0.1-0.1,0.3-0.1,0.5c0,0.6,0.5,1.1,1.1,1.1h27.4   c0.6,0,1-0.5,1-1.1c0-0.2,0-0.3-0.1-0.5C521.1,179.5,523.4,178.6,523.6,177.6z"
   id="path4614" />
	<g
   id="g4620">
		<path
   class="st1"
   d="M540.7,75.5l-19.2,0.8c-0.5,0-0.9,0.3-1.2,0.7l-7.9,11.7c-0.9-0.3-1.9-0.4-2.9-0.4c-2.8,0-5.3,1.2-7.1,3    c-0.8-0.2-1.7-0.4-2.6-0.4c-3.5,0-6.5,1.8-8.3,4.5c-0.5-0.1-1.1-0.1-1.6-0.1c-5.6,0-10.1,4.6-10.1,10.3c0,1.8,0.5,3.5,1.3,5h44.1    c0.8-1.5,1.3-3.2,1.3-5c0-4.7-3-8.6-7.2-9.9c-0.7-2.3-2.1-4.3-4-5.7l7.2-10.7l18.4-0.8c0.9,0,1.5-0.7,1.5-1.6    C542.3,76.1,541.6,75.5,540.7,75.5z"
   id="path4616" />
		<path
   class="st1"
   d="M522.7,122.5c-0.2,0-0.4,0-0.6,0l1.2-7.4h-40.5l8.5,60.2h22.6l4.6-29.4c1.3,0.5,2.7,0.8,4.2,0.8    c6.7,0,12.1-5.4,12.1-12.1C534.8,127.9,529.4,122.5,522.7,122.5z M522.7,143.5c-1.3,0-2.6-0.3-3.8-0.8l2.7-17    c0.4,0,0.7-0.1,1.1-0.1c5,0,9,4,9,9C531.7,139.5,527.7,143.5,522.7,143.5z"
   id="path4618" />
	</g>
</g>
<g
   id="g4642">
	<g
   id="g4638">
		<g
   id="g4632">
			<path
   class="st1"
   d="M76.7,684.1v-9.9h3l1.8,6.8l1.8-6.8h3v9.9h-1.9v-7.8l-2,7.8h-1.9l-2-7.8v7.8H76.7z"
   id="path4624" />
			<path
   class="st1"
   d="M88.2,684.1v-9.9h2v9.9H88.2z"
   id="path4626" />
			<path
   class="st1"
   d="M92.2,684.1v-9.9h2v8.2h5v1.7H92.2z"
   id="path4628" />
			<path
   class="st1"
   d="M100.7,684.1v-9.9h2v4.4l4.1-4.4h2.7l-3.7,3.9l3.9,6.1H107l-2.7-4.7l-1.6,1.7v3H100.7z"
   id="path4630" />
		</g>
		<path
   class="st1"
   d="M115.2,628.6c0,4.8-3.9,14.3-8.6,14.3H80.4c-4.8,0-8.6-9.5-8.6-14.3l0,0c0-4.8,3.9-8.6,8.6-8.6h26.2    C111.4,620,115.2,623.9,115.2,628.6L115.2,628.6z"
   id="path4634" />
		<path
   class="st1"
   d="M111.5,645.6H74.9c-4.9,0-8.9,4-8.9,8.9V720c0,4.9,4,8.9,8.9,8.9h36.6c4.9,0,8.9-4,8.9-8.9v-65.5    C120.4,649.6,116.4,645.6,111.5,645.6z M113.3,691.7H73.1v-25.9h40.2V691.7z"
   id="path4636" />
	</g>
	<path
   class="st1"
   d="M126.1,666.9l8.2,62h25.8l8.2-62H126.1z M157.7,720.8h-21l-6.7-50.5h34.4L157.7,720.8z"
   id="path4640" />
</g>
<g
   id="g4650">
	<path
   class="st1"
   d="M412.8,839.9l-3.4-3.5c-2.8-2.9-7.4-2.9-10.2-0.2l-15.9,16.3c1.4,1.2,2.6,2.6,3.6,4.2c1.1-0.2,2.2-0.3,3.3-0.3   c4.3,0,8.2,1.4,11.5,3.7l11-10C415.6,847.3,415.6,842.8,412.8,839.9z"
   id="path4644" />
	<path
   class="st1"
   d="M388.8,858.7c-0.9,0-1.9,0.1-2.8,0.3c-2.9-4.5-7.9-7.5-13.7-7.5c-5.8,0-10.8,3-13.7,7.5   c-0.8-0.1-1.7-0.2-2.6-0.2c-9,0-16.3,7.3-16.3,16.3c0,3.8,1.3,7.2,3.4,10h58.4c2.1-2.8,3.4-6.2,3.4-10   C405.1,866,397.8,858.7,388.8,858.7z"
   id="path4646" />
	<path
   class="st1"
   d="M349.8,910.4c0.9,5.2,5.2,11.6,11.6,11.6h21.3c6.4,0,10.1-6.4,11.6-11.6l5.2-21.3h-54.2L349.8,910.4z"
   id="path4648" />
</g>
<g
   id="g4656">
	<path
   class="st1"
   d="M707.6,857.3h-17.9v-5c10.9-2.5,19-12.2,19-23.8c0-0.1,0-0.2,0-0.3H660c0,0.1,0,0.2,0,0.3   c0,11.6,8.1,21.3,19,23.8v5h-19.4c-2.7,0-4.9,2.2-4.9,4.9c0,2.7,2.2,4.9,4.9,4.9h48.1c2.7,0,4.9-2.2,4.9-4.9   C712.6,859.5,710.4,857.3,707.6,857.3z"
   id="path4652" />
	<path
   class="st1"
   d="M701,795.4l-10.2-4.9l-7.5,7.3c0,0-2.4-4.4-2.7-5.1c-0.2-0.7-4.9,4.9-4.9,4.9s-3.1-4.6-4.4-6.6   c-5.4,6.6-9,16.5-9,25.6c0,2,0.2,3.9,0.5,5.7H706c0.3-1.9,0.5-3.8,0.5-5.7C706.4,809.3,704.4,801.6,701,795.4z"
   id="path4654" />
</g>
<g
   id="g4666">
	<g
   id="g4662">
		<path
   class="st1"
   d="M415.3,89.4c-3.7-3.8-7.1-6.7-7.1-16.1l0-2.6V55.1c0-3.4-2.5-4.5-5.8-4.7v0c0,0,0,0,0,0c-0.4,0-0.8,0-1.1,0    c0,0-0.1,0-0.1,0v0.2c-2.7,0.4-4.6,1.6-4.6,4.6v15.5l0,2.6c0,9.4-3.3,12.3-7.1,16.1c-6.2,6.3-5.5,14-5.5,14V171    c0,5.7,4.6,10.2,10.2,10.2h6.8h1.3h8c5.7,0,10.2-4.6,10.2-10.2v-67.6C420.7,103.4,421.5,95.6,415.3,89.4z"
   id="path4658" />
		<rect
   x="392"
   y="108.1"
   class="st1"
   width="21.1"
   height="37.7"
   id="rect4660" />
	</g>
	<path
   class="st1"
   d="M368.7,175.9L368.7,175.9c-0.1,0-0.1,0-0.2,0c-1.1-0.2-1.8-1.1-2.4-2.3h0c-1.9-4.2-1.7-12.8-1.7-18.1   c0-7,3.9-9.3,6.6-11c2.7-1.7,7.1-6.6,6.2-15.7c-0.9-9.1-3.6-20-3.6-20l-10-0.1v0l-0.3,0l-0.3,0v0l-10,0.1c0,0-2.7,10.9-3.6,20   c-0.9,9.1,3.5,14,6.2,15.7c2.7,1.7,6.6,4,6.6,11c0,5.4,0.3,14.1-1.8,18.3c0,0.1-0.1,0.1-0.1,0.2c-0.1,0.1-0.1,0.3-0.2,0.4   c0,0,0,0,0,0c-0.4,0.6-0.8,1-1.3,1.3c0,0,0,0,0,0c-0.1,0-0.2,0.1-0.3,0.1c-0.1,0-0.1,0.1-0.2,0.1c0,0,0,0,0,0   c-0.1,0-0.3,0.1-0.4,0.1l0,0c-4.7,0.9-13.9,3.5-2.8,3.5h8.2l0,0h8.1C382.6,179.3,373.4,176.7,368.7,175.9z"
   id="path4664" />
</g>
<g
   id="g4678">
	<path
   class="st1"
   d="M736.8,114.5c2,2,4.7,4.2,12.8-1.7c5.4,3.5,13.7-4.2,19.4-1.5c11,5.2,6.3-11.4,4.5-14.2c-4.3-7-17-4.1-17-4.1   c-4.8,0.6-6.7-0.6-9.5-2.1c-2.9-1.4-4.8,1.4-7.1,1.7c-2.4,0.3-4.9,0.5-6.2-1.4c-6.3-4.6-10.5,2.2-10.5,2.2   c-13.4,2.7-8.2,12.7-5,16.1C718.3,109.5,724.1,119.1,736.8,114.5z M724.1,96.5c0,0,3.2-5.9,8.4-1.3c1.9,1.3,5.1,1.7,8.2,0.4   c3.1-1.3,5.1-1.2,8.3,0.1c3.2,1.3,7.6,0.6,11.9,0.1c4.3-0.5,9.9,1.4,11.2,6.7c1.2,5.2,1.6,8-3.6,5.5c-5.2-2.5-8.6,0.9-10.6,1.5   c-1.9,0.6-6.8,0.5-8.4-1.2c-1.8,3.4-10.1,7.9-12.4,1.1c-3.8,2.7-11.2,5.4-16.7-3C717.8,103.1,716.6,98.3,724.1,96.5z"
   id="path4668" />
	<path
   class="st1"
   d="M756.7,161.6c0,1.7,1.7,3.1,3.7,3.1c2,0,3.7-1.4,3.7-3.1v-46c-2.3,0.6-4.9,1.9-7.2,2.6c-0.1,0-0.1,0-0.2,0   V161.6z"
   id="path4670" />
	<path
   class="st1"
   d="M740.2,161.6c0,1.7,1.7,3.1,3.7,3.1c2,0,3.7-1.4,3.7-3.1v-41.4c-3,1.2-5.4,1.5-7.4,1.3V161.6z"
   id="path4672" />
	<path
   class="st1"
   d="M724,118.6v43c0,1.7,1.7,3.1,3.7,3.1c2,0,3.7-1.4,3.7-3.1v-42.3C728.4,119.9,725.9,119.4,724,118.6z"
   id="path4674" />
	<path
   class="st1"
   d="M774.9,119h-6v-0.5c0-1-0.2-1.9-0.5-2.8c-0.9-0.5-1.9-0.6-3.1-0.4v46.3c0,2.4-2.2,4.3-4.9,4.3   c-2.7,0-4.9-1.9-4.9-4.3v-43.2c-1.7,0-3.5-0.6-3.5-0.6c-1.1,0.7-2.2,1.4-3.2,1.9v41.9c0,2.4-2.2,4.3-4.9,4.3   c-2.7,0-4.9-1.9-4.9-4.3v-40.3c-3.3-0.7-4.9-2.8-4.9-2.8c-0.5,0.2-1,0.4-1.5,0.5v42.6c0,2.4-2.2,4.3-4.9,4.3   c-2.7,0-4.9-1.9-4.9-4.3V118c-1.6-0.9-2.8-2-3.5-2.7c-0.4,1-0.7,2.1-0.7,3.2v52.8c0,4.2,3.2,7.6,7.1,7.6h36.1c3.7,0,6.7-3,7-6.9   l0.2-14.1l5.9-0.1c5.2,0,9.4-4.5,9.4-10.1v-18.6C784.4,123.5,780.1,119,774.9,119z M776.5,147.7c0,1-0.7,1.7-1.6,1.7h-6v-22.1h6   c0.9,0,1.6,0.8,1.6,1.7V147.7z"
   id="path4676" />
</g>
<g
   id="g4684">
	<path
   class="st1"
   d="M273.5,78.3c-12.5,0-22.6,9.6-22.6,22.3c0,0,0.1,0,0.1,0h3.6c0.5-3.5,2.2-8.1,3.9-9.9c2.2-2.3,3.9,0.3,3.9,0.3   l8.5,9.8h4.9l7.2-11.5c0,0,1.3-2.8,3.8-0.9c2.5,1.9,5.6,7.4,5.9,10.9c0.3,3.5-0.7,2.5-2.9,2.6c-1.3,0.1-6.3,0.1-10.2,0.1   c1,0.5,1.5,1.2,1.5,2.1l6.6,1.1c0,0,3.3-0.1,2.5,3c-0.8,3.1-4.7,7.9-7.8,9.6c-3,1.6-2.5,0.3-3.5-1.5c-0.5-0.8-1.5-3.7-2.5-6.5   l-2.4,1.9c0.6,2.1,1,4,1.2,4.7c0.4,2.1,1.7,2.9-1.8,3.5c-2.3,0.4-5.6-0.1-8.3-1.1l-3.1,2.4c3.4,2.1,7.4,3.3,11.7,3.3   c12.5,0,22.6-10.3,22.6-23.1C296.1,88.7,286,78.3,273.5,78.3z M280.3,87c-0.8,2-6.4,13.2-6.4,13.2s-1.4,0.5-1.7-0.6l-6.3-12   c0,0-2-2.4,0.9-3.8c2.8-1.4,9.1-1.8,12.4-0.5C282.6,84.5,281.1,85,280.3,87z"
   id="path4680" />
	<path
   class="st1"
   d="M260.8,174.2h-16.8v-44c2-0.3,3.9-1.1,5.5-2.3l24.7-19.3c4.3-3.4,3.7-6.1-1.5-6.1H251c-5.1,0-13.5,0-18.7,0   h-21.7c-5.1,0-5.8,2.8-1.5,6.1l24.7,19.3c1.6,1.2,3.5,2,5.5,2.3v44h-16.8c-0.7,0-1.3,0.6-1.3,1.3c0,0.7,0.6,1.3,1.3,1.3h38.3   c0.7,0,1.3-0.6,1.3-1.3C262.1,174.8,261.5,174.2,260.8,174.2z"
   id="path4682" />
</g>
<g
   id="g4696">
	<g
   id="g4692">
		<path
   class="st1"
   d="M581.3,858.7c20.2,0,36.6-11,37.1-24.7h-74.3C544.7,847.7,561.1,858.7,581.3,858.7z"
   id="path4686" />
		<path
   class="st1"
   d="M618.4,807.1c-0.8-13.6-17.1-24.4-37.1-24.4c-20,0-36.3,10.8-37.1,24.4H618.4z"
   id="path4688" />
		<path
   class="st1"
   d="M622.1,819.8h-80.9c-2.2,0.7-3.8,2.8-3.8,5.2c0,3,2.4,5.5,5.5,5.5h77.6c3,0,5.5-2.4,5.5-5.5    C625.9,822.6,624.3,820.5,622.1,819.8z"
   id="path4690" />
	</g>
	<path
   class="st1"
   d="M537.3,813.4c-0.5,1.1-7.5,5.9,0.5,3.7c8-2.1,11-6.2,15.5-3.7c4.5,2.4,5.2,6.2,12.5,2.7   c7.2-3.5,16-2.4,18.5-1.3c2.5,1.1,11.2,3.5,16.2,0.3c5-3.2,6.5-2.4,13.2-1.1c6.7,1.3,7.5,2.4,12.7,2.4s0.8-1.3-1.5-2.9   c-2.2-1.6-6.7-4.6-6.7-4.6H548C548,808.9,539.5,808.6,537.3,813.4z"
   id="path4694" />
</g>
</svg>