<svg width="159" height="51" viewBox="0 0 159 51" fill="none" xmlns="http://www.w3.org/2000/svg">
<path id="Brau&#195;&#176;" d="M0.28125 50V4.5H15.1562C20.0938 4.5 23.8021 5.52083 26.2812 7.5625C28.7812 9.60417 30.0312 12.625 30.0312 16.625C30.0312 18.75 29.4271 20.6354 28.2188 22.2812C27.0104 23.9062 25.3646 25.1667 23.2812 26.0625C25.7396 26.75 27.6771 28.0625 29.0938 30C30.5312 31.9167 31.25 34.2083 31.25 36.875C31.25 40.9583 29.9271 44.1667 27.2812 46.5C24.6354 48.8333 20.8958 50 16.0625 50H0.28125ZM6.28125 28.7188V45.0938H16.1875C18.9792 45.0938 21.1771 44.375 22.7812 42.9375C24.4062 41.4792 25.2188 39.4792 25.2188 36.9375C25.2188 31.4583 22.2396 28.7188 16.2812 28.7188H6.28125ZM6.28125 23.9062H15.3438C17.9688 23.9062 20.0625 23.25 21.625 21.9375C23.2083 20.625 24 18.8438 24 16.5938C24 14.0938 23.2708 12.2812 21.8125 11.1562C20.3542 10.0104 18.1354 9.4375 15.1562 9.4375H6.28125V23.9062ZM55.5938 21.375C54.7188 21.2292 53.7708 21.1562 52.75 21.1562C48.9583 21.1562 46.3854 22.7708 45.0312 26V50H39.25V16.1875H44.875L44.9688 20.0938C46.8646 17.0729 49.5521 15.5625 53.0312 15.5625C54.1562 15.5625 55.0104 15.7083 55.5938 16V21.375ZM80.5625 50C80.2292 49.3333 79.9583 48.1458 79.75 46.4375C77.0625 49.2292 73.8542 50.625 70.125 50.625C66.7917 50.625 64.0521 49.6875 61.9062 47.8125C59.7812 45.9167 58.7188 43.5208 58.7188 40.625C58.7188 37.1042 60.0521 34.375 62.7188 32.4375C65.4062 30.4792 69.1771 29.5 74.0312 29.5H79.6562V26.8438C79.6562 24.8229 79.0521 23.2188 77.8438 22.0312C76.6354 20.8229 74.8542 20.2188 72.5 20.2188C70.4375 20.2188 68.7083 20.7396 67.3125 21.7812C65.9167 22.8229 65.2188 24.0833 65.2188 25.5625H59.4062C59.4062 23.875 60 22.25 61.1875 20.6875C62.3958 19.1042 64.0208 17.8542 66.0625 16.9375C68.125 16.0208 70.3854 15.5625 72.8438 15.5625C76.7396 15.5625 79.7917 16.5417 82 18.5C84.2083 20.4375 85.3542 23.1146 85.4375 26.5312V42.0938C85.4375 45.1979 85.8333 47.6667 86.625 49.5V50H80.5625ZM70.9688 45.5938C72.7812 45.5938 74.5 45.125 76.125 44.1875C77.75 43.25 78.9271 42.0312 79.6562 40.5312V33.5938H75.125C68.0417 33.5938 64.5 35.6667 64.5 39.8125C64.5 41.625 65.1042 43.0417 66.3125 44.0625C67.5208 45.0833 69.0729 45.5938 70.9688 45.5938ZM115.375 46.6562C113.125 49.3021 109.823 50.625 105.469 50.625C101.865 50.625 99.1146 49.5833 97.2188 47.5C95.3438 45.3958 94.3958 42.2917 94.375 38.1875V16.1875H100.156V38.0312C100.156 43.1562 102.24 45.7188 106.406 45.7188C110.823 45.7188 113.76 44.0729 115.219 40.7812V16.1875H121V50H115.5L115.375 46.6562ZM151.062 9.34375C156.25 14.8438 158.844 21.8542 158.844 30.375V33.2812C158.844 36.5729 158.229 39.5417 157 42.1875C155.792 44.8125 154.062 46.875 151.812 48.375C149.562 49.875 147.042 50.625 144.25 50.625C141.438 50.625 138.885 49.9583 136.594 48.625C134.302 47.2708 132.521 45.4271 131.25 43.0938C130 40.7604 129.375 38.1979 129.375 35.4062C129.375 32.3438 129.958 29.6042 131.125 27.1875C132.292 24.75 133.948 22.8542 136.094 21.5C138.26 20.1458 140.688 19.4688 143.375 19.4688C146.771 19.4688 149.729 20.6562 152.25 23.0312C151.25 18.9688 149.281 15.4688 146.344 12.5312L139.531 17.1562L137.25 14.0625L143.25 9.96875C140.5 8.07292 137.219 6.61458 133.406 5.59375L135.188 0.625C140.167 1.75 144.479 3.76042 148.125 6.65625L154.031 2.625L156.312 5.75L151.062 9.34375ZM153.062 30.1562L153 28.4062C152.312 27.1354 151.24 26.125 149.781 25.375C148.344 24.6042 146.667 24.2188 144.75 24.2188C141.729 24.2188 139.375 25.2188 137.688 27.2188C136 29.1979 135.156 31.9271 135.156 35.4062C135.156 38.3229 136.021 40.8021 137.75 42.8438C139.5 44.8854 141.708 45.9062 144.375 45.9062C146.979 45.9062 149.073 44.7292 150.656 42.375C152.26 40.0208 153.062 36.9271 153.062 33.0938V30.1562Z" fill="url(#paint0_linear)"/>
<defs>
<linearGradient id="paint0_linear" x1="159" y1="-14" x2="3.00001" y2="66" gradientUnits="userSpaceOnUse">
<stop/>
<stop offset="1" stop-opacity="0.21"/>
</linearGradient>
</defs>
</svg>
