<svg width="294" height="260" viewBox="0 0 294 260" fill="none" xmlns="http://www.w3.org/2000/svg">
<g id="Group 1">
<path id="Bread" d="M248.063 158.203C255.472 179.674 245.099 198.837 245.099 198.837C244.21 170.209 225.835 154.971 217.833 149.43C199.754 145.506 179.601 142.966 157.966 142.273C173.97 167.438 160.04 193.065 160.04 193.065C158.855 161.897 137.516 146.429 130.996 142.273C110.546 143.197 91.2823 145.736 74.0927 149.661C88.3185 174.134 75.2782 198.837 75.2782 198.837C74.3891 176.904 63.7198 162.821 55.125 154.971C21.6351 165.822 0 182.214 0 200.684C0 233.005 65.7944 259.325 147 259.325C228.206 259.325 294 233.005 294 200.684C293.704 184.061 276.218 168.824 248.063 158.203Z" fill="#282829"/>
<g id="g4556">
<path id="lineRight" d="M205.385 24.1613C217.536 34.5505 211.609 47.7101 204.2 59.2536C199.754 66.1797 192.937 73.5677 192.048 82.1099C190.863 94.8078 209.534 100.81 217.833 103.812C221.685 105.197 215.165 114.432 211.609 113.277C194.716 107.506 178.119 98.7325 185.825 78.4159C191.159 64.3328 220.5 40.0914 203.903 26.2392C201.236 23.9305 202.421 21.6217 205.385 24.1613Z" fill="#282829"/>
<path id="lineLeft" d="M95.7278 14.9264C107.879 25.3155 101.952 38.4752 94.5423 50.0187C90.0968 56.9448 83.2802 64.3327 82.3911 72.8749C81.2056 85.5728 99.877 91.5754 108.175 94.5767C112.028 95.9619 105.508 105.197 101.952 104.042C85.0585 98.2707 68.4617 89.4975 76.1673 69.1809C81.502 55.0978 110.843 30.8565 94.246 17.0042C91.875 14.4647 92.7641 12.3868 95.7278 14.9264Z" fill="#282829"/>
<path id="lineMiddle" d="M147 1.53596C160.633 15.8499 153.817 34.3197 145.815 50.2497C140.776 60.1772 133.367 70.1045 132.478 82.3407C130.996 100.118 151.742 108.429 161.226 112.585C165.671 114.432 158.262 127.591 154.409 125.975C135.738 117.895 117.363 105.659 125.958 77.2615C131.885 57.6375 164.19 23.9304 146.111 4.53725C142.554 1.07419 143.74 -1.9271 147 1.53596Z" fill="#282829"/>
</g>
</g>
</svg>
